<?xml version="1.0" encoding="UTF-8" standalone="no"?>
<svg
   xmlns:dc="http://purl.org/dc/elements/1.1/"
   xmlns:cc="http://creativecommons.org/ns#"
   xmlns:rdf="http://www.w3.org/1999/02/22-rdf-syntax-ns#"
   xmlns:svg="http://www.w3.org/2000/svg"
   xmlns="http://www.w3.org/2000/svg"
   viewBox="0 0 816 1056"
   height="1056"
   width="816"
   xml:space="preserve"
   id="svg2"
   style="opacity: 0.1"
   version="1.1"><metadata
     id="metadata8"><rdf:RDF><cc:Work
         rdf:about=""><dc:format>image/svg+xml</dc:format><dc:type
           rdf:resource="http://purl.org/dc/dcmitype/StillImage" /></cc:Work></rdf:RDF></metadata><defs
     id="defs6" /><g
     transform="matrix(1.3333333,0,0,-1.3333333,0,1056)"
     id="g10"><path
       id="path12"
       style="fill:#231f20;fill-opacity:1;fill-rule:nonzero;stroke:none"
       d="m 188.3955,614.0117 c -15.0713,22.6748 -24.5859,49.1319 -46.9892,67.0567 -38.879,31.1079 -37.9834,-18.0762 -30.7417,-48.085 7.4399,-30.8276 12.4687,-59.0547 28.9799,-86.4829 13.479,-22.3892 22.4605,-43.9634 24.2041,-70.9697 -3.2534,33.0073 18.2276,101.2534 40.9121,124.1626" /><path
       id="path14"
       style="fill:#231f20;fill-opacity:1;fill-rule:nonzero;stroke:none"
       d="m 321.3594,634.4678 c 2.9883,-0.1367 -9.5508,0 -4.4239,0 38.625,2.8047 37.2032,-23.3277 16.8028,-47.503 -21.7373,-25.7592 -47.7495,-47.6552 -59.02,-81.3212 -4.6192,-13.7998 1.5532,-47.0264 -20.8633,-35.9971 -9.7832,4.812 -16.2222,29.396 -22.5674,38.3994 -8.6924,12.3345 -20.4199,19.0371 -24.6709,33.5156 -4.1938,14.2837 19.2129,64.8325 0.1431,76.3789 -27.0088,-42.1899 -49.6807,-94.1362 -57.2222,-145.5171 -6.1831,-42.1254 8.0127,-43.3344 28.689,-70.5239 21.7094,-28.5498 3.5063,-37.9658 -24.3365,-37.7627 5.6665,-26.6064 34.0176,-52.499 44.6802,-79.039 12.5957,-31.3584 5.5923,-72.3721 20.0474,-101.7754 1.9594,27.0107 -2.6035,69.7119 37.2348,68.664 29.8736,-0.7861 24.6094,-40.7656 24.5547,-62.1123 -0.0415,21.9756 5.5327,62.3477 34.461,51.4278 7.0009,-2.6436 9.2226,-10.5586 16.6709,-13.4952 10.4375,-4.1181 18.4423,1.3555 28.7334,-6.1406 13.8056,-10.0586 24.6933,-68.4082 22.4209,-87.7871 5.3193,18.7041 18.6132,40.6025 26.6259,58.7432 9.1553,20.7304 14.8135,39.5761 26.5918,59.3242 13.3633,22.4023 24.9483,21.2129 30.6836,47.0459 4.2491,19.1338 17.1612,63.6328 14.0166,83.5527 -16.1797,-0.9844 -20.5215,-22.247 -41.0166,-22.2783 -36.2412,-0.0576 -30.7724,19.4971 -23.6328,46.9824 5.5,21.1729 5.6631,59.416 28.0908,71.3404 27.3116,14.52 30.6582,-10.0938 44.5303,-21.7696 10.8135,12.1245 -1.7519,52.3369 -3.5371,66.7315 -2.0859,16.8203 8.4727,39.0542 -0.04,55.686 -5.8594,11.4448 -10.6114,16.6572 -14.3204,28.6377 -7.9443,25.6587 -45.5078,40.5078 -73.6406,36.373 -22.9306,-3.3696 -59.0449,4.9117 -77.7304,-5.6894" /><path
       id="path16"
       style="fill:#231f20;fill-opacity:1;fill-rule:nonzero;stroke:none"
       d="m 222.7075,148.7119 c -2.3047,-15.7012 18.3589,-39.0801 30.6846,-48.6963 8.0889,-6.3095 32.7832,-17.2851 42.9648,-19.959 25.8501,-6.7871 75.2818,29.9112 84.3169,55.2832 15.0996,42.3965 -6.6611,88.1934 -38.2109,115.5176 -24.8027,21.4795 -68.6245,43.1055 -98.9893,23.5957 -14.7968,-9.5078 -34.4546,-31.623 -38.8115,-49.5556 -5.1699,-21.2774 10.416,-41.3037 12.3726,-62.958" /><path
       id="path18"
       style="fill:#231f20;fill-opacity:1;fill-rule:nonzero;stroke:none"
       d="m 495.5752,458.0986 c -0.1445,-24.5132 -9.1397,-69.581 -17.1436,-93.5927 -6.3798,-19.1407 17.9278,-70.42 -55.2968,-8.6885 -11.7032,9.8672 -18.6006,32.3222 -21.2422,49.0556 -6.3115,39.9805 4.1387,66.6958 40.1474,82.3008 20.1592,8.7359 37.669,21.3897 50.0518,-2.9922 4.8213,-9.4926 2.3867,-12.2143 3.3936,-22.4633" /><path
       id="path20"
       style="fill:#231f20;fill-opacity:1;fill-rule:nonzero;stroke:none"
       d="m 459.7842,634.1724 c 15.0703,22.6738 24.5859,49.1318 46.9892,67.0566 38.8789,31.1079 37.9834,-18.0771 30.7412,-48.0864 -7.4404,-30.8262 -12.4677,-59.0547 -28.9794,-86.4824 -13.4805,-22.3882 -22.46,-43.9634 -24.2032,-70.9698 3.253,33.0074 -18.2275,101.2539 -40.914,124.1631" /><path
       id="path22"
       style="fill:#231f20;fill-opacity:1;fill-rule:nonzero;stroke:none"
       d="m 202.7153,605.8306 c 5.7066,40.9101 30.5806,119.7007 83.5581,118.3266 -1.4272,-9.5561 -8.2094,-14.6118 -11.5551,-24.2304 -3.1509,-9.0513 -1.3892,-21.2154 -2.3482,-30.7315 -1.9902,-19.7495 -1.4272,-40.5029 -2.4604,-60.6533 -20.0635,19.8306 -48.2515,18.6025 -65.149,3.4253" /><path
       id="path24"
       style="fill:#231f20;fill-opacity:1;fill-rule:nonzero;stroke:none"
       d="m 313.334,623.7129 c 6.2666,43.4307 33.582,127.0781 91.7617,125.6191 -1.5674,-10.145 -7.75,-18.2622 -11.4238,-28.4726 -3.46,-9.6104 -6.2383,-27.2652 -7.291,-37.3677 -2.1856,-20.9663 1.8789,-35.5073 0.7441,-56.8989 -22.0322,21.0517 -52.9883,19.7485 -71.5449,3.6347" /><path
       id="path26"
       style="fill:#ffffff;fill-opacity:1;fill-rule:nonzero;stroke:none"
       d="m 247.2197,166.9072 c -1.872,-0.6201 -1.8633,-2.2041 -4.1186,-1.2558 -3.8135,17.4804 15.1274,37.7275 30.4941,29.122 9.0542,-5.0732 10.7481,-14.2021 22.7652,-13.4463 9.5605,0.6016 14.1191,12.8555 19.8896,13.3936 16.9824,1.584 0.2969,-36.5625 -8.2441,-42.3769 -7.0635,-4.8116 -16.6197,-1.6504 -23.3047,-9.6563 -4.2984,-5.1475 -7.9258,-18.9385 -2.9326,-24.1221 -6.4244,9.2637 -6.0855,22.0088 -13.1875,31.0694 -6.0777,7.7568 -16.4766,9.1728 -22.8077,15.8261" /><path
       id="path28"
       style="fill:#ffffff;fill-opacity:1;fill-rule:nonzero;stroke:none"
       d="m 401.9795,415.6143 c -4.915,-15.7476 -18.6514,-43.1221 -35.1279,-50.7256 -13.5088,-6.2334 -33.6182,-3.1211 -40.0235,2.0644 -24.4004,19.7559 26.5147,38.46 44.1797,54.0459 18.1211,15.9873 25.9766,22.8604 32.2119,39.4859 1.6485,-13.2842 0.3789,-39.6817 -1.2402,-44.8706 z" /></g></svg>
