<?xml version="1.0" encoding="UTF-8" standalone="yes"?>
<!-- Created with sK1/UniConvertor (http://sk1project.org/) -->
<svg xmlns="http://www.w3.org/2000/svg" xmlns:xlink="http://www.w3.org/1999/xlink"
  width="595.276pt" height="841.89pt" viewBox="0 0 595.276 841.89"
  fill-rule="evenodd">
<g>
<path style="stroke:none; fill:#CCC" d="M 490.773 131.661C 468.37 149.586 458.854 176.044 443.784 198.717L 438.451 203.383C 422.881 191.612 399.859 185.877 381.045 188.642C 377.944 189.097 374.598 189.335 371.091 189.44C 370.45 176.141 368.815 164.412 370.381 149.398C 371.434 139.296 374.212 121.641 377.672 112.03C 381.346 101.82 387.528 93.7028 389.096 83.5578C 330.916 82.0988 303.601 165.746 297.334 209.177L 299.58 202.662C 301.343 201.132 303.218 199.736 305.185 198.48C 305.877 198.474 306.114 198.457 305.359 198.422L 305.341 198.385C 305.425 198.333 305.511 198.284 305.595 198.232C 339.39 197.831 337.278 222.769 317.738 245.925C 296.001 271.684 269.989 293.58 258.718 327.246C 254.099 341.046 260.272 374.273 237.855 363.243C 228.072 358.431 221.633 333.847 215.288 324.844C 206.595 312.509 194.868 305.807 190.617 291.328C 186.654 277.833 207.324 231.97 193.533 217.211C 210.617 205.699 235.633 206.283 253.91 224.348C 254.943 204.197 254.38 183.444 256.37 163.694C 257.329 154.178 255.567 142.014 258.718 132.963C 262.064 123.344 268.846 118.289 270.273 108.733C 220.425 107.44 195.46 177.118 187.931 219.434C 186.188 222.234 184.466 225.075 182.766 227.951L 172.395 218.878C 157.324 196.203 147.81 169.746 125.406 151.821C 86.5273 120.714 87.4229 169.898 94.6646 199.906C 102.104 230.734 107.133 258.961 123.645 286.389C 131.081 298.741 137.138 310.849 141.376 323.754C 138.003 335.93 135.336 348.214 133.538 360.466C 127.354 402.592 141.55 403.801 162.227 430.99C 183.936 459.54 165.733 468.956 137.89 468.753C 143.557 495.359 171.908 521.252 182.57 547.792C 189.57 566.743 192.047 590.089 192 610.89C 190 636.89 194.965 659.829 201 677.89C 209.161 700.733 225.392 726.874 237 735.89C 248.608 744.905 254 747.89 280.357 752.833C 340.354 756.24 373.277 684.762 393.319 640.268C 402.475 619.537 408.133 600.692 419.911 580.943C 433.274 558.541 453.265 540.723 459 514.89C 467.737 479.133 476.185 413.729 479.575 374.791L 479.485 371.171C 479.712 356.065 473.76 334.451 470.68 319.296C 474.478 300.198 482.167 283.449 492.535 266.23C 509.047 238.802 514.074 210.573 521.515 179.747C 528.757 149.738 529.652 100.553 490.773 131.661zM 292.006 680.546C 284.942 685.358 275.387 682.196 268.701 690.202C 265.004 694.63 261.818 705.441 264.174 711.68C 264.661 712.584 265.178 713.473 265.769 714.324C 265.07 713.6 264.557 712.693 264.174 711.68C 259.359 702.741 259.03 691.483 252.581 683.255C 249.06 678.761 244.022 675.548 239.102 672.787C 237.232 671.737 235.314 670.784 233.426 669.768C 231.718 668.847 230.693 668.368 229.226 667.051C 227.783 665.756 226.642 663.525 226.62 661.644C 226.573 657.552 227.652 653.489 229.515 649.859C 233.011 643.042 239.621 637.073 247.447 636.111C 250.96 635.679 254.508 636.387 257.595 638.116C 266.649 643.19 268.343 652.318 280.36 651.563C 289.921 650.961 294.479 638.707 300.25 638.169C 317.232 636.585 300.547 674.732 292.006 680.546zM 385.979 417.275C 381.065 433.023 367.328 460.398 350.852 468.001C 337.343 474.234 317.233 471.122 310.828 465.937C 286.428 446.181 337.343 427.477 355.008 411.891C 373.129 395.903 380.984 389.03 387.22 372.405C 388.868 385.689 387.599 412.087 385.979 417.275z"/>
</g>
</svg>
